<?xml version="1.0" encoding="utf-8"?>
<svg version="1.1" id="Layer_1" xmlns="http://www.w3.org/2000/svg" xmlns:xlink="http://www.w3.org/1999/xlink" x="0px" y="0px"
	 viewBox="0 0 630 420" style="enable-background:new 0 0 630 420;" xml:space="preserve">
<style type="text/css">
	.st0{enable-background:new    ;}
	.st1{fill:#FFFFFF;}
</style>
<g id="g3027" transform="translate(-380,-520)">
	<g class="st0">
		<path class="st1" d="M419.6,533.5h18.3v69.8c0,5.5,1.7,10,5.1,13.5s8,5.2,13.9,5.2c6.6,0,11.8-1.7,15.4-5.1
			c3.7-3.4,5.5-8.1,5.5-14v-69.5h18.3v70.9c0,10.6-3.6,18.9-10.7,24.9s-16.6,9-28.4,9c-12,0-21.2-2.9-27.7-8.8
			c-6.5-5.9-9.7-14.2-9.7-25.2L419.6,533.5L419.6,533.5z"/>
		<path class="st1" d="M575.6,636.5l-28.7-43.9l-11.5,15.7v28.2h-18.3v-103h18.3v49.3l35-49.3h20.8l-32.3,45l38.5,58H575.6z"/>
	</g>
	<g class="st0">
		<path class="st1" d="M502.6,753.1h-7.5l-22.5-65l-21.9,65h-7.5l-33.8-104.4h19.1l19.3,62.2l20.9-62.2h8l21,62.2l19.3-62.2h19
			L502.6,753.1z"/>
		<path class="st1" d="M565.1,665v24.1h34v15.5h-34v30.9h46.7v16.2h-65v-103h65.7V665H565.1z"/>
		<path class="st1" d="M660.3,751.7h-31.5V648.8c13.9-0.7,23.6-1,29.2-1c10.7,0,19,2.3,25.1,6.9c6,4.6,9,11.1,9,19.6
			c0,8.2-4.3,14.6-12.9,19.3c12.8,4.5,19.2,13.6,19.2,27.6c0,9.4-3.5,16.8-10.6,22.3C680.6,749,671.5,751.7,660.3,751.7z M647,663.4
			v24.7c2.8,0.2,5.8,0.3,8.9,0.3c11.9,0,17.9-4.5,17.9-13.4c0-7.9-5.4-11.9-16.2-11.9C654.7,663.1,651.2,663.2,647,663.4z
			 M647,702.4v34c3.7,0.3,6.7,0.5,9,0.5c8.2,0,14.1-1.4,17.8-4.1c3.7-2.8,5.5-7.4,5.5-13.8c0-5.9-1.7-10.1-5.1-12.8
			c-3.4-2.7-9.4-4-17.9-4C654.5,702.2,651.4,702.2,647,702.4z"/>
	</g>
	<g class="st0">
		<path class="st1" d="M479.7,866.9l-7.5-20.9h-35.3l-7.2,20.9h-20.3l41.1-104.4h8l41.4,104.4H479.7z M454.5,794l-12.4,38h24.8
			L454.5,794z"/>
		<path class="st1" d="M568.9,866.9l-27.5-42.5c-2.8,0-6.6-0.2-11.6-0.5v43h-19v-103c1,0,5-0.2,11.9-0.5s12.4-0.5,16.7-0.5
			c26.2,0,39.2,10.1,39.2,30.4c0,6.1-1.8,11.6-5.4,16.7c-3.6,5-8.2,8.6-13.6,10.6L590,867h-21.1V866.9z M529.8,779.8v28.6
			c3.4,0.3,6,0.4,7.7,0.4c7.6,0,13.2-1.1,16.8-3.2c3.5-2.2,5.3-6.4,5.3-12.6c0-5.1-1.9-8.6-5.7-10.6s-9.8-3-17.9-3
			C534,779.4,531.9,779.5,529.8,779.8z"/>
		<path class="st1" d="M669.3,769.4l-7.5,15.1c-4.1-4.1-10.6-6.1-19.7-6.1c-8.6,0-15.6,3.6-21.1,10.8s-8.2,16.3-8.2,27.3
			s2.5,19.8,7.6,26.2c5.1,6.5,11.9,9.7,20.4,9.7c9.7,0,17.3-3.5,22.8-10.4l8.5,14.8c-7.5,7.9-18.4,11.9-32.8,11.9
			c-14.4,0-25.6-4.7-33.5-14.2c-8-9.5-12-22.4-12-38.7c0-15.2,4.4-28,13.3-38.2c8.8-10.2,20.1-15.4,33.9-15.4
			C652.8,762.2,662.3,764.6,669.3,769.4z"/>
		<path class="st1" d="M746.1,866.9v-46.4h-41v46.4h-18.3v-103h18.3v40.4h41v-40.4h18.1v103H746.1z"/>
		<path class="st1" d="M785.6,866.9v-103h18.3v103H785.6z"/>
		<path class="st1" d="M863.7,868.3h-10.1l-38.5-104.4h20.1l23.8,69.6l25.2-69.6H904L863.7,868.3z"/>
		<path class="st1" d="M933.1,780.2v24.1h34v15.5h-34v30.9h46.7v16.2h-65v-103h65.7v16.2L933.1,780.2L933.1,780.2z"/>
	</g>
	<g class="st0">
		<path class="st1" d="M412.8,913.1v13.3h-5.3V885h5.3v2.4c2-2,4.4-3,7.3-3c4.2,0,7.5,1.3,9.9,4c2.4,2.6,3.5,6.5,3.5,11.6
			c0,4.5-1.2,8.2-3.6,11.1c-2.4,2.9-5.8,4.3-10.3,4.3c-1.3,0-2.6-0.2-4-0.7S413.2,913.7,412.8,913.1z M412.8,891.4v17.4
			c0.3,0.5,1,1,2.1,1.4c1.1,0.5,2.1,0.7,3.1,0.7c6.6,0,9.9-3.7,9.9-11.1c0-3.8-0.8-6.5-2.3-8.3s-4.1-2.6-7.5-2.6
			c-0.7,0-1.7,0.3-2.7,0.8C414.3,890.2,413.4,890.8,412.8,891.4z"/>
		<path class="st1" d="M455.4,890.1c-1.2-0.8-2.3-1.2-3.5-1.2c-1.9,0-3.5,0.9-4.9,2.6c-1.4,1.7-2.1,3.8-2.1,6.2v17.1h-5.3V885h5.3
			v4.8c1.9-3.5,4.8-5.3,8.6-5.3c0.9,0,2.3,0.2,4.1,0.5L455.4,890.1z"/>
		<path class="st1" d="M486.5,900.4H465c0,3.5,1,6.2,2.9,8c1.7,1.6,3.9,2.4,6.5,2.4c3,0,5.5-0.9,7.6-2.6l2.2,3.8
			c-0.8,0.8-2.1,1.5-3.8,2.1c-2.1,0.8-4.5,1.2-7.1,1.2c-3.7,0-6.9-1.3-9.5-3.8c-2.9-2.8-4.4-6.6-4.4-11.3c0-4.9,1.5-8.9,4.5-11.8
			c2.7-2.7,5.8-4,9.5-4c4.2,0,7.6,1.2,10,3.6c2.3,2.3,3.5,5.4,3.5,9.2C486.9,898.3,486.8,899.4,486.5,900.4z M473.7,888.9
			c-2.4,0-4.3,0.8-5.9,2.3c-1.5,1.4-2.4,3.2-2.6,5.4h16.5c0-2.1-0.7-3.9-2-5.3C478.2,889.7,476.2,888.9,473.7,888.9z"/>
		<path class="st1" d="M490.5,913l1.9-5c3,1.9,5.3,2.9,7.1,2.9c3.3,0,4.9-1.4,4.9-4.1c0-2-1.6-3.7-4.7-5.1c-2.4-1.1-4.1-2-4.9-2.5
			c-0.8-0.6-1.6-1.2-2.2-2c-0.6-0.7-1.1-1.5-1.4-2.3s-0.5-1.7-0.5-2.7c0-2.4,0.9-4.4,2.7-5.7s4.1-2.1,7-2.1c2.2,0,4.9,0.7,8.2,2.1
			l-1.5,4.9c-2.1-1.7-4.2-2.5-6.3-2.5c-1.3,0-2.3,0.3-3.2,0.9c-0.9,0.6-1.3,1.3-1.3,2.3c0,1.9,1.1,3.4,3.3,4.3l3.8,1.7
			c2.3,1.1,4,2.3,5.1,3.6s1.6,3.1,1.6,5.1c0,2.7-0.9,4.8-2.8,6.3s-4.5,2.3-7.8,2.3C496.2,915.3,493.3,914.6,490.5,913z"/>
		<path class="st1" d="M540.7,900.4h-21.5c0,3.5,1,6.2,2.9,8c1.7,1.6,3.9,2.4,6.5,2.4c3,0,5.5-0.9,7.6-2.6l2.2,3.8
			c-0.8,0.8-2.1,1.5-3.8,2.1c-2.1,0.8-4.5,1.2-7.1,1.2c-3.7,0-6.9-1.3-9.5-3.8c-2.9-2.8-4.4-6.6-4.4-11.3c0-4.9,1.5-8.9,4.5-11.8
			c2.7-2.7,5.8-4,9.5-4c4.2,0,7.6,1.2,10,3.6c2.3,2.3,3.5,5.4,3.5,9.2C541.1,898.3,540.9,899.4,540.7,900.4z M527.8,888.9
			c-2.4,0-4.3,0.8-5.9,2.3c-1.5,1.4-2.4,3.2-2.6,5.4h16.5c0-2.1-0.7-3.9-2-5.3C532.3,889.7,530.3,888.9,527.8,888.9z"/>
		<path class="st1" d="M562.8,890.1c-1.2-0.8-2.3-1.2-3.5-1.2c-1.9,0-3.5,0.9-4.9,2.6c-1.4,1.7-2.1,3.8-2.1,6.2v17.1H547V885h5.3
			v4.8c1.9-3.5,4.8-5.3,8.6-5.3c0.9,0,2.3,0.2,4.1,0.5L562.8,890.1z"/>
		<path class="st1" d="M579.5,915.3h-1.4l-12.8-30.4h5.8l7.9,20.9l8-20.9h5.5L579.5,915.3z"/>
		<path class="st1" d="M599.3,914.8v-25.4h-4.1V885h9.4v29.8H599.3z M602.2,873.7c0.9,0,1.7,0.3,2.3,1c0.6,0.6,1,1.4,1,2.3
			c0,0.9-0.3,1.7-1,2.3c-0.6,0.6-1.4,1-2.3,1c-0.9,0-1.7-0.3-2.3-1c-0.6-0.6-1-1.4-1-2.3c0-0.9,0.3-1.7,0.9-2.3
			C600.5,874,601.3,873.7,602.2,873.7z"/>
		<path class="st1" d="M631.3,914.8v-17.3c0-3.2-0.5-5.4-1.4-6.7s-2.6-1.9-4.8-1.9c-1.2,0-2.5,0.4-3.8,1.1c-1.3,0.7-2.3,1.6-3,2.7
			v22.2H613V885h3.6l1.7,3.8c1.7-2.9,4.6-4.4,8.5-4.4c6.5,0,9.8,4,9.8,11.9v18.5H631.3z"/>
		<path class="st1" d="M643,922.9l2.9-4.2c3.1,2.1,5.9,3.1,8.5,3.1c2.4,0,4.3-0.4,5.7-1.2s2.1-1.9,2.1-3.1c0-2.4-1.7-3.6-5.2-3.6
			c-0.6,0-1.7,0.1-3.2,0.4s-2.8,0.4-3.6,0.4c-4.2,0-6.3-1.6-6.3-4.8c0-1,0.5-1.9,1.5-2.7s2.2-1.4,3.7-1.7c-4.2-2-6.3-5.4-6.3-10.2
			c0-3.1,1.1-5.7,3.3-7.8s4.9-3.1,8-3.1c2.9,0,5.2,0.6,6.9,1.8l2.6-3.2l3.5,3.3l-3.2,2.4c1.4,1.8,2,4.1,2,6.9c0,3-0.9,5.5-2.8,7.6
			c-1.9,2-4.3,3.2-7.4,3.5l-4.4,0.4c-0.5,0.1-1.2,0.3-2.1,0.6c-0.9,0.3-1.3,0.8-1.3,1.4c0,0.8,0.9,1.1,2.7,1.1c0.8,0,2-0.1,3.7-0.4
			c1.7-0.3,2.9-0.4,3.8-0.4c2.9,0,5.2,0.7,6.9,2.1c1.6,1.4,2.5,3.3,2.5,5.8c0,2.7-1.2,5-3.7,6.7s-5.6,2.5-9.3,2.5
			c-1.9,0-4-0.3-6.1-1C646,924.8,644.3,923.9,643,922.9z M654.2,888.7c-1.8,0-3.3,0.6-4.5,1.9c-1.2,1.3-1.7,2.9-1.7,4.7
			c0,2.1,0.6,3.8,1.7,5.2c1.1,1.4,2.6,2,4.6,2c1.9,0,3.3-0.7,4.4-2s1.6-3.1,1.6-5.2c0-1.9-0.6-3.4-1.7-4.7
			C657.4,889.3,655.9,888.7,654.2,888.7z"/>
		<path class="st1" d="M694.9,885v19c0,4.6,2,6.9,6,6.9c1.7,0,3.3-0.5,4.8-1.5s2.4-2.2,2.9-3.5V885h5.3v29.8h-5.3v-4.1
			c-0.6,1.2-1.8,2.2-3.6,3.2s-3.5,1.5-5.2,1.5c-3.3,0-5.8-0.9-7.5-2.8s-2.6-4.5-2.6-8V885H694.9z"/>
		<path class="st1" d="M740.3,914.8l-9.4-14.9l-4.6,4.8v10.2H721v-42h5.3V899l11.4-13.9h6.2l-9.5,11.3l11.7,18.5L740.3,914.8
			L740.3,914.8z"/>
		<path class="st1" d="M794.5,915.3h-1.4l-8.7-20.3l-8.7,20.3h-1.4l-10.7-30.4h5.6l6.4,19.6l7.9-19.6h1.4l8.2,19.6l6.8-19.6h5.2
			L794.5,915.3z"/>
		<path class="st1" d="M834.5,900.4H813c0,3.5,1,6.2,2.9,8c1.7,1.6,3.9,2.4,6.5,2.4c3,0,5.5-0.9,7.6-2.6l2.2,3.8
			c-0.8,0.8-2.1,1.5-3.8,2.1c-2.1,0.8-4.5,1.2-7.1,1.2c-3.7,0-6.9-1.3-9.5-3.8c-2.9-2.8-4.4-6.6-4.4-11.3c0-4.9,1.5-8.9,4.5-11.8
			c2.7-2.7,5.8-4,9.5-4c4.2,0,7.6,1.2,10,3.6c2.3,2.3,3.5,5.4,3.5,9.2C834.9,898.3,834.8,899.4,834.5,900.4z M821.6,888.9
			c-2.4,0-4.3,0.8-5.9,2.3c-1.5,1.4-2.4,3.2-2.6,5.4h16.5c0-2.1-0.7-3.9-2-5.3C826.2,889.7,824.2,888.9,821.6,888.9z"/>
		<path class="st1" d="M845,912.6l-1.9,2.7h-2.6v-42.6h5.3v14.4c0.5-0.7,1.4-1.3,2.8-1.9c1.4-0.6,2.7-0.9,4.1-0.9
			c4.1,0,7.4,1.4,9.9,4.2s3.8,6.4,3.8,10.7c0,5-1.3,8.9-3.8,11.7s-6,4.3-10.3,4.3c-1.4,0-2.8-0.3-4.2-0.8
			C846.7,914,845.7,913.4,845,912.6z M845.8,891.2v17.2c0,0.3,0.7,0.8,2,1.5s2.3,1,3,1c3.6,0,6.2-0.9,7.7-2.6
			c1.6-1.7,2.3-4.6,2.3-8.7c0-3.4-0.9-6-2.7-7.9s-4.3-2.8-7.3-2.8c-0.7,0-1.6,0.3-2.7,0.8C846.9,890.3,846.1,890.8,845.8,891.2z"/>
		<path class="st1" d="M870.3,913l1.9-5c3,1.9,5.3,2.9,7.1,2.9c3.3,0,4.9-1.4,4.9-4.1c0-2-1.6-3.7-4.7-5.1c-2.4-1.1-4.1-2-4.9-2.5
			c-0.8-0.6-1.6-1.2-2.2-2c-0.6-0.7-1.1-1.5-1.4-2.3c-0.3-0.8-0.5-1.7-0.5-2.7c0-2.4,0.9-4.4,2.7-5.7s4.1-2.1,7-2.1
			c2.2,0,4.9,0.7,8.2,2.1l-1.5,4.9c-2.1-1.7-4.2-2.5-6.3-2.5c-1.3,0-2.3,0.3-3.2,0.9c-0.9,0.6-1.3,1.3-1.3,2.3
			c0,1.9,1.1,3.4,3.3,4.3l3.8,1.7c2.3,1.1,4,2.3,5.1,3.6s1.6,3.1,1.6,5.1c0,2.7-0.9,4.8-2.8,6.3c-1.9,1.5-4.5,2.3-7.8,2.3
			C876,915.3,873,914.6,870.3,913z"/>
		<path class="st1" d="M897.9,914.8v-25.4h-4.1V885h9.4v29.8H897.9z M900.7,873.7c0.9,0,1.7,0.3,2.3,1c0.6,0.6,1,1.4,1,2.3
			c0,0.9-0.3,1.7-1,2.3c-0.6,0.6-1.4,1-2.3,1c-0.9,0-1.7-0.3-2.3-1c-0.6-0.6-1-1.4-1-2.3c0-0.9,0.3-1.7,0.9-2.3
			C899.1,874,899.8,873.7,900.7,873.7z"/>
		<path class="st1" d="M913.4,889.2H910V885h3.5v-6.2l5.3-2v8.3h8.2v4.2h-8.2V904c0,2.5,0.4,4.3,1.3,5.3c0.8,1.1,2.2,1.6,4.1,1.6
			c1.4,0,2.8-0.3,4.2-1l0.8,4.6c-2.2,0.6-4.6,0.8-7.2,0.8c-2.4,0-4.3-0.9-6-2.6c-1.6-1.8-2.4-4-2.4-6.6v-16.9H913.4z"/>
		<path class="st1" d="M959.3,900.4h-21.5c0,3.5,1,6.2,2.9,8c1.7,1.6,3.9,2.4,6.5,2.4c3,0,5.5-0.9,7.6-2.6l2.2,3.8
			c-0.8,0.8-2.1,1.5-3.8,2.1c-2.1,0.8-4.5,1.2-7.1,1.2c-3.7,0-6.9-1.3-9.5-3.8c-2.9-2.8-4.4-6.6-4.4-11.3c0-4.9,1.5-8.9,4.5-11.8
			c2.7-2.7,5.8-4,9.5-4c4.2,0,7.6,1.2,10,3.6c2.3,2.3,3.5,5.4,3.5,9.2C959.7,898.3,959.5,899.4,959.3,900.4z M946.4,888.9
			c-2.4,0-4.3,0.8-5.9,2.3c-1.5,1.4-2.4,3.2-2.6,5.4h16.5c0-2.1-0.7-3.9-2-5.3C950.9,889.7,948.9,888.9,946.4,888.9z"/>
		<path class="st1" d="M963.3,913l1.9-5c3,1.9,5.3,2.9,7.1,2.9c3.3,0,4.9-1.4,4.9-4.1c0-2-1.6-3.7-4.7-5.1c-2.4-1.1-4.1-2-4.9-2.5
			c-0.8-0.6-1.6-1.2-2.2-2c-0.6-0.7-1.1-1.5-1.4-2.3c-0.3-0.8-0.5-1.7-0.5-2.7c0-2.4,0.9-4.4,2.7-5.7s4.1-2.1,7-2.1
			c2.2,0,4.9,0.7,8.2,2.1l-1.5,4.9c-2.1-1.7-4.2-2.5-6.3-2.5c-1.3,0-2.3,0.3-3.2,0.9c-0.9,0.6-1.3,1.3-1.3,2.3
			c0,1.9,1.1,3.4,3.3,4.3l3.8,1.7c2.3,1.1,4,2.3,5.1,3.6s1.6,3.1,1.6,5.1c0,2.7-0.9,4.8-2.8,6.3c-1.9,1.5-4.5,2.3-7.8,2.3
			C969,915.3,966.1,914.6,963.3,913z"/>
	</g>
</g>
</svg>
