<?xml version="1.0" encoding="utf-8"?>
<svg version="1.1" id="Layer_1" xmlns="http://www.w3.org/2000/svg" xmlns:xlink="http://www.w3.org/1999/xlink" x="0px" y="0px"
	 viewBox="0 0 582 214.3" style="enable-background:new 0 0 582 214.3;" xml:space="preserve">
<style type="text/css">
	.st0{enable-background:new    ;}
	.st1{fill:#FFFFFF;}
</style>
<g class="st0">
	<path class="st1" d="M77.3,0v61c0,7-1.6,13.1-4.7,18.3c-3.1,5.2-7.6,9.3-13.5,12.1c-5.9,2.8-12.8,4.2-20.9,4.2
		c-12.1,0-21.5-3.1-28.2-9.3C3.4,80,0,71.5,0,60.7V0h19.9v57.7c0,7.3,1.5,12.6,4.4,16c2.9,3.4,7.8,5.1,14.5,5.1
		c6.5,0,11.3-1.7,14.2-5.1c2.9-3.4,4.4-8.8,4.4-16.1V0H77.3z"/>
	<path class="st1" d="M176.2,94.2h-22.7l-24.7-39.7l-8.4,6.1v33.6h-20V0h20v43.1l7.9-11.1l25.5-32H176l-32.9,41.7L176.2,94.2z"/>
	<path class="st1" d="M314.1,94.2h-22.8l-12.8-49.5c-0.5-1.8-1.3-5.4-2.4-10.9c-1.1-5.5-1.8-9.2-2-11.1c-0.3,2.3-0.9,6-1.9,11.2
		c-1,5.1-1.8,8.8-2.4,11l-12.7,49.4h-22.7L210.5,0h19.7l12.1,51.4c2.1,9.5,3.6,17.7,4.6,24.7c0.3-2.4,0.8-6.2,1.8-11.4
		c0.9-5.1,1.8-9.1,2.6-12L264.9,0h18.9l13.7,52.8c0.6,2.4,1.4,6,2.3,10.8c0.9,4.9,1.6,9,2.1,12.5c0.4-3.4,1.1-7.5,2.1-12.5
		c0.9-5,1.8-9.1,2.6-12.1l12-51.4h19.7L314.1,94.2z"/>
	<path class="st1" d="M404.2,94.2H350V0h54.3v16.4H370v20.7h31.9v16.4H370v24.3h34.3V94.2z"/>
	<path class="st1" d="M423.9,0h29.3c13.4,0,23.1,1.9,29.1,5.7s9.1,9.9,9.1,18.1c0,5.6-1.3,10.2-4,13.9s-6.2,5.8-10.5,6.5v0.6
		c6,1.3,10.3,3.8,12.9,7.5c2.6,3.7,4,8.5,4,14.6c0,8.6-3.1,15.3-9.3,20.1c-6.2,4.8-14.6,7.2-25.3,7.2h-35.3V0z M443.9,37.3h11.6
		c5.4,0,9.3-0.8,11.8-2.5s3.6-4.4,3.6-8.3c0-3.6-1.3-6.2-4-7.8c-2.6-1.6-6.8-2.4-12.5-2.4h-10.5V37.3z M443.9,53.2v24.6h13
		c5.5,0,9.6-1.1,12.2-3.2c2.6-2.1,3.9-5.3,3.9-9.7c0-7.8-5.6-11.7-16.8-11.7H443.9z"/>
</g>
<g class="st0">
	<path class="st1" d="M92.6,213l-6.8-22.4H51.4L44.6,213H23.1l33.3-94.6h24.4l33.4,94.6H92.6z M81,173.8
		c-6.3-20.3-9.9-31.8-10.7-34.5c-0.8-2.7-1.4-4.8-1.7-6.3c-1.4,5.5-5.5,19.1-12.2,40.8H81z"/>
	<path class="st1" d="M146,176.9V213h-20v-94.2h27.5c12.8,0,22.3,2.3,28.4,7c6.1,4.7,9.2,11.7,9.2,21.2c0,5.5-1.5,10.5-4.6,14.8
		c-3.1,4.3-7.4,7.7-13,10.2c14.2,21.2,23.4,34.9,27.7,41.1h-22.2l-22.5-36.2H146z M146,160.6h6.4c6.3,0,11-1.1,14-3.2
		c3-2.1,4.5-5.4,4.5-9.9c0-4.5-1.5-7.6-4.6-9.5c-3.1-1.9-7.8-2.8-14.3-2.8H146V160.6z"/>
	<path class="st1" d="M253.2,134.1c-7.5,0-13.3,2.8-17.5,8.5c-4.1,5.7-6.2,13.5-6.2,23.6c0,21,7.9,31.5,23.7,31.5
		c6.6,0,14.6-1.7,24-5v16.8c-7.7,3.2-16.4,4.8-25.9,4.8c-13.7,0-24.2-4.2-31.5-12.5c-7.3-8.3-10.9-20.2-10.9-35.8
		c0-9.8,1.8-18.4,5.3-25.8c3.6-7.4,8.7-13,15.4-17c6.7-3.9,14.5-5.9,23.5-5.9c9.2,0,18.3,2.2,27.6,6.6l-6.4,16.2
		c-3.5-1.7-7.1-3.1-10.6-4.4C260.1,134.7,256.6,134.1,253.2,134.1z"/>
	<path class="st1" d="M374.5,213h-19.9v-40.7h-37.3V213h-20v-94.2h20v36.9h37.3v-36.9h19.9V213z"/>
	<path class="st1" d="M398.3,213v-94.2h20V213H398.3z"/>
	<path class="st1" d="M495.7,118.8h20.2l-32,94.2h-21.8l-32-94.2h20.2l17.7,56.1c1,3.3,2,7.2,3.1,11.6c1.1,4.4,1.7,7.5,2,9.2
		c0.5-4,2.1-10.9,4.8-20.8L495.7,118.8z"/>
	<path class="st1" d="M582,213h-54.3v-94.2H582v16.4h-34.3v20.7h31.9v16.4h-31.9v24.3H582V213z"/>
</g>
</svg>
