<?xml version="1.0" encoding="utf-8"?>
<svg version="1.1" id="Layer_1" xmlns="http://www.w3.org/2000/svg" xmlns:xlink="http://www.w3.org/1999/xlink" x="0px" y="0px"
	 viewBox="0 0 210 219.6" style="enable-background:new 0 0 210 219.6;" xml:space="preserve">
<style type="text/css">
	.st0{enable-background:new    ;}
	.st1{fill:#FFFFFF;}
</style>
<g id="g3813" transform="translate(0,-140)">
	<g class="st0">
		<path class="st1" d="M16.1,140h18.3v69.8c0,5.5,1.7,10,5.1,13.5c3.4,3.5,8,5.2,13.9,5.2c6.6,0,11.8-1.7,15.4-5.1
			c3.7-3.4,5.5-8.1,5.5-14V140h18.3v70.9c0,10.6-3.6,18.9-10.7,24.9c-7.1,6-16.6,9-28.4,9c-12,0-21.2-2.9-27.7-8.8
			c-6.5-5.9-9.7-14.2-9.7-25.2V140z"/>
		<path class="st1" d="M172.1,243l-28.7-43.9l-11.5,15.7V243h-18.3V140h18.3v49.3l35-49.3h20.8l-32.3,45l38.5,58H172.1z"/>
	</g>
	<g class="st0">
		<path class="st1" d="M93.2,359.6h-7.5l-22.5-65l-21.9,65h-7.5L0,255.2h19.1l19.3,62.2l20.9-62.2h8l21,62.2l19.3-62.2h19.1
			L93.2,359.6z"/>
		<path class="st1" d="M189.8,358.2l-7.5-20.9H147l-7.2,20.9h-20.3l41.1-104.4h8L210,358.2H189.8z M164.5,285.3l-12.4,38h24.8
			L164.5,285.3z"/>
	</g>
</g>
</svg>
